<mxfile host="app.diagrams.net" modified="2021-06-04T04:17:26.398Z" agent="5.0 (Windows)" etag="EOaXkwhsgo-73gu0GR27" version="14.7.4" type="github" pages="2">
  <diagram id="wn40NA7GhEC_BnvhtzGV" name="Page-1">
    <mxGraphModel dx="865" dy="433" grid="1" gridSize="10" guides="1" tooltips="1" connect="1" arrows="1" fold="1" page="1" pageScale="1" pageWidth="850" pageHeight="1100" math="0" shadow="0">
      <root>
        <mxCell id="0" />
        <mxCell id="1" parent="0" />
        <mxCell id="jnmwdIBIAUSC75S_MWXo-11" style="edgeStyle=orthogonalEdgeStyle;rounded=0;orthogonalLoop=1;jettySize=auto;html=1;" edge="1" parent="1" source="jnmwdIBIAUSC75S_MWXo-1" target="jnmwdIBIAUSC75S_MWXo-3">
          <mxGeometry relative="1" as="geometry" />
        </mxCell>
        <mxCell id="jnmwdIBIAUSC75S_MWXo-1" value="Request" style="html=1;" vertex="1" parent="1">
          <mxGeometry x="130" y="70" width="110" height="50" as="geometry" />
        </mxCell>
        <mxCell id="jnmwdIBIAUSC75S_MWXo-2" value="Ordering&lt;br&gt;system" style="html=1;" vertex="1" parent="1">
          <mxGeometry x="620" y="70" width="110" height="50" as="geometry" />
        </mxCell>
        <mxCell id="jnmwdIBIAUSC75S_MWXo-10" style="edgeStyle=orthogonalEdgeStyle;rounded=0;orthogonalLoop=1;jettySize=auto;html=1;entryX=0;entryY=0.5;entryDx=0;entryDy=0;" edge="1" parent="1" source="jnmwdIBIAUSC75S_MWXo-3" target="jnmwdIBIAUSC75S_MWXo-2">
          <mxGeometry relative="1" as="geometry" />
        </mxCell>
        <mxCell id="jnmwdIBIAUSC75S_MWXo-3" value="&lt;div align=&quot;center&quot;&gt;Authentication + Authorization&lt;/div&gt;" style="ellipse;whiteSpace=wrap;html=1;align=center;verticalAlign=top;" vertex="1" parent="1">
          <mxGeometry x="380" y="20" width="150" height="150" as="geometry" />
        </mxCell>
        <mxCell id="jnmwdIBIAUSC75S_MWXo-7" style="edgeStyle=orthogonalEdgeStyle;rounded=0;orthogonalLoop=1;jettySize=auto;html=1;" edge="1" parent="1" source="jnmwdIBIAUSC75S_MWXo-4" target="jnmwdIBIAUSC75S_MWXo-6">
          <mxGeometry relative="1" as="geometry" />
        </mxCell>
        <mxCell id="jnmwdIBIAUSC75S_MWXo-12" style="edgeStyle=orthogonalEdgeStyle;rounded=0;orthogonalLoop=1;jettySize=auto;html=1;" edge="1" parent="1" source="jnmwdIBIAUSC75S_MWXo-4">
          <mxGeometry relative="1" as="geometry">
            <mxPoint x="418" y="120" as="targetPoint" />
            <Array as="points">
              <mxPoint x="418" y="110" />
              <mxPoint x="418" y="110" />
              <mxPoint x="418" y="120" />
            </Array>
          </mxGeometry>
        </mxCell>
        <mxCell id="jnmwdIBIAUSC75S_MWXo-4" value="" style="rhombus;whiteSpace=wrap;html=1;" vertex="1" parent="1">
          <mxGeometry x="410" y="70" width="15" height="20" as="geometry" />
        </mxCell>
        <mxCell id="jnmwdIBIAUSC75S_MWXo-13" style="edgeStyle=orthogonalEdgeStyle;rounded=0;orthogonalLoop=1;jettySize=auto;html=1;" edge="1" parent="1" source="jnmwdIBIAUSC75S_MWXo-6">
          <mxGeometry relative="1" as="geometry">
            <mxPoint x="480" y="110" as="targetPoint" />
          </mxGeometry>
        </mxCell>
        <mxCell id="jnmwdIBIAUSC75S_MWXo-6" value="" style="rhombus;whiteSpace=wrap;html=1;" vertex="1" parent="1">
          <mxGeometry x="470" y="70" width="20" height="20" as="geometry" />
        </mxCell>
      </root>
    </mxGraphModel>
  </diagram>
  <diagram id="ZnfuRenCbNJs1vvous8k" name="Page-2">
    <mxGraphModel dx="865" dy="1533" grid="1" gridSize="10" guides="1" tooltips="1" connect="1" arrows="1" fold="1" page="1" pageScale="1" pageWidth="850" pageHeight="1100" math="0" shadow="0">
      <root>
        <mxCell id="OvInv0y3VVBVd1RLIJcA-0" />
        <mxCell id="OvInv0y3VVBVd1RLIJcA-1" parent="OvInv0y3VVBVd1RLIJcA-0" />
        <mxCell id="LuORxG9vtJnnJ0c-uHuf-0" style="edgeStyle=orthogonalEdgeStyle;rounded=0;orthogonalLoop=1;jettySize=auto;html=1;" edge="1" parent="OvInv0y3VVBVd1RLIJcA-1" source="LuORxG9vtJnnJ0c-uHuf-1" target="LuORxG9vtJnnJ0c-uHuf-4">
          <mxGeometry relative="1" as="geometry" />
        </mxCell>
        <mxCell id="LuORxG9vtJnnJ0c-uHuf-1" value="Request" style="html=1;" vertex="1" parent="OvInv0y3VVBVd1RLIJcA-1">
          <mxGeometry x="130" y="75" width="110" height="50" as="geometry" />
        </mxCell>
        <mxCell id="LuORxG9vtJnnJ0c-uHuf-2" value="Ordering&lt;br&gt;system" style="html=1;" vertex="1" parent="OvInv0y3VVBVd1RLIJcA-1">
          <mxGeometry x="700" y="75" width="110" height="50" as="geometry" />
        </mxCell>
        <mxCell id="LuORxG9vtJnnJ0c-uHuf-3" style="edgeStyle=orthogonalEdgeStyle;rounded=0;orthogonalLoop=1;jettySize=auto;html=1;entryX=0;entryY=0.5;entryDx=0;entryDy=0;" edge="1" parent="OvInv0y3VVBVd1RLIJcA-1" source="LuORxG9vtJnnJ0c-uHuf-4" target="LuORxG9vtJnnJ0c-uHuf-2">
          <mxGeometry relative="1" as="geometry" />
        </mxCell>
        <mxCell id="LuORxG9vtJnnJ0c-uHuf-4" value="&lt;div align=&quot;center&quot;&gt;Authentication + Authorization&lt;/div&gt;" style="ellipse;whiteSpace=wrap;html=1;align=center;verticalAlign=top;" vertex="1" parent="OvInv0y3VVBVd1RLIJcA-1">
          <mxGeometry x="362.5" y="-10" width="235" height="220" as="geometry" />
        </mxCell>
        <mxCell id="LuORxG9vtJnnJ0c-uHuf-5" style="edgeStyle=orthogonalEdgeStyle;rounded=0;orthogonalLoop=1;jettySize=auto;html=1;" edge="1" parent="OvInv0y3VVBVd1RLIJcA-1" source="LuORxG9vtJnnJ0c-uHuf-7" target="LuORxG9vtJnnJ0c-uHuf-9">
          <mxGeometry relative="1" as="geometry" />
        </mxCell>
        <mxCell id="LuORxG9vtJnnJ0c-uHuf-6" style="edgeStyle=orthogonalEdgeStyle;rounded=0;orthogonalLoop=1;jettySize=auto;html=1;" edge="1" parent="OvInv0y3VVBVd1RLIJcA-1" source="LuORxG9vtJnnJ0c-uHuf-7">
          <mxGeometry relative="1" as="geometry">
            <mxPoint x="418" y="120" as="targetPoint" />
            <Array as="points">
              <mxPoint x="418" y="110" />
              <mxPoint x="418" y="110" />
              <mxPoint x="418" y="120" />
            </Array>
          </mxGeometry>
        </mxCell>
        <mxCell id="LuORxG9vtJnnJ0c-uHuf-7" value="" style="rhombus;whiteSpace=wrap;html=1;" vertex="1" parent="OvInv0y3VVBVd1RLIJcA-1">
          <mxGeometry x="410" y="70" width="15" height="20" as="geometry" />
        </mxCell>
        <mxCell id="LuORxG9vtJnnJ0c-uHuf-8" style="edgeStyle=orthogonalEdgeStyle;rounded=0;orthogonalLoop=1;jettySize=auto;html=1;" edge="1" parent="OvInv0y3VVBVd1RLIJcA-1" source="LuORxG9vtJnnJ0c-uHuf-9">
          <mxGeometry relative="1" as="geometry">
            <mxPoint x="480" y="110" as="targetPoint" />
          </mxGeometry>
        </mxCell>
        <mxCell id="LuORxG9vtJnnJ0c-uHuf-12" style="edgeStyle=orthogonalEdgeStyle;rounded=0;orthogonalLoop=1;jettySize=auto;html=1;entryX=0;entryY=0.5;entryDx=0;entryDy=0;" edge="1" parent="OvInv0y3VVBVd1RLIJcA-1" source="LuORxG9vtJnnJ0c-uHuf-9" target="LuORxG9vtJnnJ0c-uHuf-11">
          <mxGeometry relative="1" as="geometry" />
        </mxCell>
        <mxCell id="LuORxG9vtJnnJ0c-uHuf-9" value="" style="rhombus;whiteSpace=wrap;html=1;" vertex="1" parent="OvInv0y3VVBVd1RLIJcA-1">
          <mxGeometry x="470" y="70" width="20" height="20" as="geometry" />
        </mxCell>
        <mxCell id="LuORxG9vtJnnJ0c-uHuf-10" value="" style="rhombus;whiteSpace=wrap;html=1;" vertex="1" parent="OvInv0y3VVBVd1RLIJcA-1">
          <mxGeometry x="470" y="110" width="20" height="20" as="geometry" />
        </mxCell>
        <mxCell id="LuORxG9vtJnnJ0c-uHuf-11" value="" style="rhombus;whiteSpace=wrap;html=1;" vertex="1" parent="OvInv0y3VVBVd1RLIJcA-1">
          <mxGeometry x="510" y="70" width="20" height="20" as="geometry" />
        </mxCell>
        <mxCell id="LuORxG9vtJnnJ0c-uHuf-14" style="edgeStyle=orthogonalEdgeStyle;rounded=0;orthogonalLoop=1;jettySize=auto;html=1;entryX=0;entryY=0.5;entryDx=0;entryDy=0;" edge="1" parent="OvInv0y3VVBVd1RLIJcA-1" source="LuORxG9vtJnnJ0c-uHuf-13" target="LuORxG9vtJnnJ0c-uHuf-10">
          <mxGeometry relative="1" as="geometry" />
        </mxCell>
        <mxCell id="LuORxG9vtJnnJ0c-uHuf-13" value="" style="rhombus;whiteSpace=wrap;html=1;" vertex="1" parent="OvInv0y3VVBVd1RLIJcA-1">
          <mxGeometry x="410" y="120" width="15" height="20" as="geometry" />
        </mxCell>
      </root>
    </mxGraphModel>
  </diagram>
</mxfile>
